<svg preserveAspectRatio="xMidYMid meet" width="100%" height="100%" overflow="visible" style="display: block;" viewBox="0 0 44 29" fill="none" xmlns="http://www.w3.org/2000/svg">
<style>
  path { fill: black; }
  @media (prefers-color-scheme: dark) {
    path { fill: #fffaf0; }
  }
</style>
<g id="leWani_minifiMax_OK 1" clip-path="url(#clip0_0_4)">
<path id="Vector" d="M0.971501 17.741C1.06566 18.143 1.18549 18.2361 1.20261 18.2361C1.43371 18.2361 1.6691 18.1472 1.91732 18.0499C1.96012 18.033 2.00292 18.016 2.05 17.9991C2.87171 17.6945 4.2455 17.6183 5.30688 17.7156C5.15281 17.4025 5.07149 17.0514 5.07577 16.6663C5.07577 16.5521 5.08861 16.4378 5.11001 16.3278C4.16419 15.672 2.41377 15.1727 1.25396 15.2024C1.0357 15.6889 0.971501 16.2221 0.864507 16.7679C0.864507 16.789 0.855948 16.806 0.851668 16.8271C0.855948 16.9456 0.877347 17.3687 0.967221 17.7368L0.971501 17.741Z"/>
<path id="Vector_2" d="M1.0143 6.99402C1.00146 7.39597 0.98862 7.68792 1.65198 7.99679C1.60918 7.64138 1.61774 7.42136 1.6691 7.32827C1.6905 7.2902 1.73329 7.26904 1.77609 7.26904C1.81889 7.26904 1.78893 7.26904 1.79749 7.26904C1.88737 7.28173 1.99864 7.37059 2.22546 7.55676C2.43089 7.726 2.66628 7.92063 2.89738 8.00102C2.81607 7.73869 2.77327 7.55675 2.77755 7.45944C2.77755 7.42136 2.79467 7.38751 2.82463 7.36636C2.84603 7.34943 2.8717 7.34097 2.89738 7.34097C2.92306 7.34097 2.91878 7.34097 2.92734 7.34097C3.0001 7.35789 3.11137 7.41713 3.22264 7.4679C3.47087 7.5906 3.81325 7.75985 4.19414 7.78947C4.17275 7.57791 4.16419 7.42982 4.16847 7.3452C4.16847 7.30289 4.19414 7.26481 4.23266 7.24365C4.24978 7.23519 4.27118 7.23096 4.2883 7.23096C4.30542 7.23096 4.3311 7.23519 4.35249 7.24788C4.38245 7.26481 4.41669 7.2902 4.45093 7.31135C4.60928 7.41713 4.85322 7.57791 5.18276 7.63715C5.16993 7.32828 5.1956 7.23096 5.21272 7.18865C5.23412 7.14211 5.27692 7.11672 5.324 7.11672C5.37107 7.11672 5.33256 7.11672 5.33683 7.11672C5.37963 7.12095 5.43099 7.14211 5.50802 7.16749C5.6407 7.21827 5.80761 7.2775 6.02587 7.2775C6.24414 7.2775 6.05155 7.2775 6.06439 7.2775C6.15427 7.15903 6.38965 7.0998 6.74487 7.01517C6.79195 7.00248 6.83902 6.99402 6.8861 6.98132C6.89466 6.98132 6.9075 6.98132 6.91606 6.98132C6.95458 6.98132 6.98881 6.99825 7.01021 7.02787C7.04017 7.06595 7.04445 7.11672 7.01877 7.15903C6.72775 7.68369 5.97024 8.0391 5.43955 8.0391C4.90886 8.0391 5.13569 8.00948 5.02013 7.95025C5.06293 8.05179 5.10145 8.14488 5.13997 8.21258C5.16137 8.25066 5.16137 8.29297 5.13997 8.33105C5.11857 8.36913 5.08005 8.39028 5.04153 8.39451C4.99874 8.39451 4.95166 8.39451 4.90458 8.39451C4.65636 8.39451 4.43381 8.3649 4.29686 8.30989C4.29686 8.45375 4.31398 8.56799 4.34822 8.65684C4.36105 8.69492 4.35677 8.74146 4.3311 8.77108C4.3097 8.8007 4.27118 8.81762 4.23694 8.81762C4.2027 8.81762 4.22838 8.81762 4.2241 8.81762C4.13851 8.80916 4.04863 8.79224 3.9716 8.77954C3.8646 8.76262 3.77473 8.7457 3.70625 8.7457C3.63778 8.7457 3.60354 8.77531 3.59926 8.78378C3.5907 8.8007 3.5693 8.84724 3.71909 9.03341C3.74905 9.07149 3.75333 9.1265 3.72765 9.16458C3.70625 9.20266 3.66346 9.22381 3.62066 9.22381C3.57786 9.22381 3.6121 9.22381 3.60354 9.22381C3.27828 9.1815 2.82035 9.02918 2.53361 8.8684C2.53361 9.10111 2.63204 9.39305 2.78183 9.6173C2.80323 9.65115 2.80751 9.69346 2.79467 9.72731C2.78183 9.76539 2.74759 9.79078 2.70907 9.79924C2.66628 9.8077 2.63204 9.82463 2.61064 9.85424C2.58068 9.88809 2.56784 9.93464 2.5764 10.0023C2.5764 10.0362 2.56784 10.0658 2.54644 10.0912C2.46085 10.1885 2.49081 10.29 2.54644 10.4381C2.59352 10.5608 2.64488 10.7005 2.58496 10.8612C2.54217 10.967 2.44801 11.0178 2.36242 11.0643C2.16127 11.1744 2.19123 11.2632 2.3453 11.3986C2.82891 11.8175 3.274 11.4409 3.49227 10.967L3.50083 10.9501C3.52223 10.9078 3.56502 10.8782 3.6121 10.8782C3.65918 10.8782 3.70625 10.912 3.72337 10.9543C3.80041 11.1617 3.9288 11.2928 4.12567 11.3648C4.02723 11.1997 3.87316 10.7005 3.993 10.4889C3.993 10.4847 3.99728 10.4804 4.00156 10.4762C4.02296 10.4424 4.06147 10.4212 4.09999 10.4212C4.13851 10.4212 4.17703 10.4424 4.2027 10.472C4.32254 10.6497 4.6692 10.7724 4.81043 10.7724C4.67348 10.5481 4.605 10.3958 4.60072 10.307C4.60072 10.2477 4.63924 10.1927 4.69915 10.18C4.72055 10.18 4.74623 10.1758 4.77619 10.1758C4.84894 10.1758 4.93882 10.1885 5.04153 10.2012C5.18276 10.2181 5.33683 10.2393 5.50802 10.2393C5.67921 10.2393 5.67921 10.235 5.75625 10.2224C5.76053 9.98541 5.79477 9.71462 5.98736 9.71462C6.17994 9.71462 6.13287 9.74424 6.21846 9.77385C6.3169 9.8077 6.41533 9.84578 6.51376 9.84578C6.6122 9.84578 6.74059 9.8204 6.86042 9.60461C6.88182 9.56653 6.92462 9.54114 6.96742 9.54114C7.01021 9.54114 6.96742 9.54114 6.9717 9.54114C7.01877 9.54114 7.05729 9.57076 7.07869 9.61307C7.2028 9.89656 6.9289 10.1081 6.75771 10.3027C6.53944 10.5481 6.2955 10.7682 6.03871 10.9755C5.5123 11.3986 4.93026 11.7498 4.36105 12.1094C3.63778 12.5622 2.92734 13.0487 2.33674 13.6665C2.05855 13.9584 1.87025 14.2927 1.63486 14.61C2.88882 14.6777 4.42097 15.177 5.31972 15.7397C5.60646 15.1685 6.12859 14.7116 6.74487 14.5085C8.27274 13.9542 10.1729 14.9908 10.2115 16.6706C10.2457 17.6522 9.56522 18.5746 8.64935 18.93C8.36261 19.0484 8.06731 19.1077 7.77201 19.1204C8.44393 19.8354 9.17148 20.4997 9.929 21.1259C10.5196 21.5998 11.1402 22.061 11.8206 22.4037C12.2529 22.1498 12.7793 22.0652 13.2715 22.1625C13.1859 21.3671 13.5325 20.4997 13.9947 19.8904C14.136 19.7127 14.2943 19.5435 14.4784 19.4123C13.4641 19.2938 12.9205 18.6719 12.8221 17.5083C12.3256 17.2841 12.0689 17.0006 11.9876 16.5986C11.9062 16.1882 12.0303 15.6762 12.1801 15.1812C11.3242 14.4535 11.4397 14.1107 11.6965 13.7046C12.0774 13.1037 11.4055 10.984 12.5653 10.984C12.8521 10.984 13.1516 11.1913 13.4255 11.5805C13.3999 10.7343 13.1131 10.4128 12.8863 10.1547C12.7579 10.0108 12.6595 9.90079 12.6552 9.73154C12.6552 9.72308 12.6552 9.71462 12.6552 9.70616C12.7451 9.20265 12.9505 9.13073 13.066 9.13073C13.4041 9.13073 13.8107 9.74424 13.8492 10.5651C14.2644 9.78232 14.35 9.0588 14.106 8.4749C13.9049 8.00102 13.4812 7.63291 12.8777 7.4129C12.8392 7.39597 12.8093 7.36212 12.8007 7.31981C12.7921 7.2775 12.8093 7.23519 12.8435 7.20557C13.0147 7.06595 13.1816 6.99825 13.3913 6.9094C13.6866 6.78669 14.0547 6.63014 14.5768 6.20703C13.9477 6.1478 13.5026 5.9574 13.1131 5.79238C12.775 5.64853 12.484 5.52159 12.1587 5.52159C11.8335 5.52159 12.1159 5.52159 12.0945 5.52159C12.0945 5.52159 12.0945 5.52159 12.0903 5.52159C12.0475 5.52159 12.0089 5.50044 11.9876 5.46236C11.9662 5.42428 11.9619 5.37774 11.9876 5.33966C12.086 5.17464 12.1031 5.02232 12.1159 4.87423C12.1373 4.68383 12.1545 4.5019 12.3599 4.2988C12.6338 3.98993 12.9591 3.52028 12.9591 3.02947C12.3684 3.87992 11.3755 3.98993 10.4126 4.09571C9.64225 4.18033 8.91042 4.26072 8.50812 4.73884C8.48672 4.76423 8.45677 4.78115 8.42253 4.78115C8.42253 4.78115 8.41825 4.78115 8.41397 4.78115C8.38401 4.78115 8.35405 4.76846 8.33265 4.7473C7.99027 4.42997 7.14288 4.09148 6.37253 4.09148C5.60218 4.09148 6.26126 4.09148 6.20562 4.09571C6.20562 4.09571 6.20134 4.09571 6.19706 4.09571C6.14143 4.09571 6.09007 4.05763 6.07723 4.00263C6.06439 3.94339 6.09435 3.88839 6.14999 3.863C6.36825 3.77838 6.59936 3.72337 6.84758 3.66414C7.13005 3.59644 7.42535 3.52874 7.69069 3.40604C8.16146 3.19025 8.86762 2.67829 8.96605 2.27633C8.98745 2.18748 8.97461 2.11132 8.93182 2.05209C8.90186 2.04786 8.86762 2.04362 8.83338 2.04362C8.50812 2.04362 8.14006 2.26787 7.75061 2.50905C7.27128 2.80522 6.77483 3.10986 6.22274 3.10986C6.01731 3.10986 5.82473 3.06755 5.63214 2.9787C5.57222 3.19025 5.44811 3.34257 5.29832 3.49489C5.15709 3.63875 5.09289 3.75299 4.87034 3.78684C4.51085 3.84184 4.09143 3.96878 3.89456 4.30303C3.75333 4.54844 3.77045 4.83615 3.78757 5.10694C3.80469 5.3735 3.81753 5.62737 3.67202 5.79238C3.57358 5.90239 3.40239 5.96586 3.15845 5.97855C3.15845 5.97855 3.15417 5.97855 3.14989 5.97855C3.14561 5.97855 3.14133 5.97855 3.13277 5.97855C3.04717 5.96586 2.94446 5.9447 2.83319 5.91932C2.63204 5.87277 2.40949 5.822 2.20407 5.822C1.99864 5.822 1.81889 5.8897 1.73329 6.02509C1.7119 6.05894 1.67338 6.0801 1.63058 6.0801C1.58778 6.0801 1.6049 6.0801 1.59634 6.07587C1.51075 6.05048 1.43799 6.03779 1.36952 6.03779C1.06993 6.03779 1.00574 6.28319 1.00574 6.49052C1.03142 6.67245 1.02714 6.829 1.02286 6.98132L1.0143 6.99402ZM6.20134 4.71768C6.74487 4.79384 7.21136 5.2508 7.18568 5.79238C6.83902 5.63583 6.45813 5.47505 6.10719 5.43274C5.76909 5.3862 5.34967 5.48774 4.99874 5.55967C5.07149 5.01386 5.66209 4.64152 6.20134 4.71768Z"/>
<path id="Vector_3" d="M40.6875 24.0285C40.5933 24.0454 40.4949 24.0538 40.405 24.02C40.3151 23.9819 40.2467 23.8888 40.2723 23.7957C40.2852 23.745 40.3237 23.7027 40.3622 23.6646C40.6318 23.3938 40.9871 23.123 41.1882 22.8014C41.3594 22.5222 41.4536 22.2345 41.4878 21.9087C41.124 22.2345 40.0755 22.501 39.6218 22.5687C39.6175 22.5687 39.609 22.5687 39.6047 22.5687C39.5705 22.5687 39.532 22.5518 39.5106 22.5264C39.4849 22.4926 39.4763 22.4502 39.4892 22.4079C39.7374 21.7394 40.2509 21.3967 41.0085 21.3967C41.766 21.3967 41.3423 21.4136 41.5263 21.4432C41.2182 21.1132 40.8373 20.9397 40.4307 20.9397C39.4335 20.9397 38.3935 21.9594 38.0597 23.2626C37.8115 24.2485 37.2594 24.9678 36.4206 25.3909C36.2965 25.4543 36.1638 25.5093 36.0268 25.5601C36.014 25.5643 35.9969 25.5686 35.984 25.5686C35.937 25.5686 35.8942 25.5432 35.8771 25.5009C35.8514 25.4459 35.8685 25.3782 35.9199 25.3443C36.6303 24.9001 36.947 24.1977 37.2851 23.4573C37.5847 22.8014 37.8372 22.061 38.3636 21.549C38.3636 21.549 39.3308 20.5928 40.1868 20.5928C41.0427 20.5928 41.017 20.6563 41.3979 20.8467C40.8073 19.9962 40.1868 19.5816 39.4977 19.5816C38.1154 19.5816 36.733 21.2655 35.3934 22.8903C34.1994 24.3416 33.0738 25.7124 32.0638 25.7124C32.0338 25.7124 32.0082 25.7124 31.9825 25.7124C31.7685 25.7124 31.2164 25.6828 30.7456 25.4163C30.2877 25.1539 30.0566 24.7562 30.0566 24.2315C30.0566 23.2922 30.8098 22.721 31.6786 22.0568C32.8128 21.1936 34.0967 20.2162 34.1224 18.1388C34.1438 16.7383 33.5703 15.3462 32.5474 14.3181C31.7471 13.5142 30.292 12.5537 27.9167 12.5537C25.5415 12.5537 24.57 13.1164 23.3802 14.1784C22.2247 15.2066 21.4115 16.7086 21.0264 18.5196C20.8509 19.3446 20.3972 20.0343 19.7082 20.5209C19.0791 20.9609 18.2959 21.2063 17.4956 21.2063C16.1517 21.2063 15.0433 20.5547 14.5083 19.4589C14.1788 19.8481 13.9733 20.3347 13.845 20.817C13.7123 21.3332 13.6438 21.9637 13.8706 22.4418L14.1574 23.0299C13.8963 22.9411 13.4041 22.7168 13.1302 22.6957C12.7408 22.6533 12.3256 22.7507 12.0089 22.9834L11.8634 23.0891L11.7008 23.013C10.1772 22.2852 8.51668 20.669 7.48526 19.1119C6.85186 19.0696 6.24842 18.8073 5.80333 18.3842C4.81899 18.2022 3.14561 18.2318 2.26398 18.5576C2.22118 18.5746 2.17839 18.5872 2.13987 18.6042C1.84885 18.7142 1.54927 18.8284 1.20689 18.8284C0.864507 18.8284 0.573485 18.4857 0.436533 18.0541C0.226826 18.2064 0.0299582 18.3503 0.00855948 18.5619C-0.00855948 18.7099 0.0684758 18.875 0.235386 19.0654C0.620562 19.4758 0.616282 19.7593 0.612003 20.0851C0.612003 20.2543 0.603443 20.4489 0.66336 20.6732C0.66336 20.6732 0.66336 20.6732 0.66336 20.6774C0.727556 20.9778 0.903025 21.1767 1.08277 21.384C1.28392 21.6125 1.45939 21.841 1.49363 22.1498C1.52359 22.446 1.61774 22.6999 1.87881 22.8861C2.09279 23.0384 2.34102 23.0891 2.5978 23.0299C2.83319 22.9749 2.86315 23.013 2.99154 23.2203C3.2312 23.6138 3.48371 23.9988 3.75333 24.3712C4.34822 25.2047 5.01585 26.0382 5.85896 26.6348C5.88036 26.6517 5.90604 26.6687 5.92744 26.6856C5.54226 26.034 5.28976 25.4882 5.18276 25.0693C5.16993 25.0143 5.1956 24.9593 5.24696 24.9339C5.26408 24.9254 5.2812 24.9212 5.3026 24.9212C5.33684 24.9212 5.37107 24.9381 5.39675 24.9635C6.48381 26.2879 8.01595 27.701 9.06449 27.701C10.113 27.701 9.08589 27.701 9.09873 27.701C8.85478 27.4599 8.66219 27.1679 8.54664 26.8633C8.52524 26.8083 8.54664 26.7448 8.60228 26.7152C8.61939 26.7067 8.64079 26.6983 8.66219 26.6983C8.70071 26.6983 8.73495 26.7152 8.76063 26.7448C9.36835 27.5403 10.1301 28.3569 11.1573 28.3738C10.8877 28.1369 10.6865 27.8999 10.5581 27.6672C10.5282 27.6164 10.5453 27.5487 10.5924 27.5149C10.6138 27.498 10.6394 27.4895 10.6651 27.4895C10.6908 27.4895 10.725 27.5022 10.7507 27.5233C11.2942 28.048 12.2786 28.213 13.0061 28.378C13.5625 28.505 14.1274 28.5938 14.6966 28.6446C15.2444 28.6954 15.7922 28.7631 16.34 28.7631C17.624 28.7631 18.8523 28.4669 19.9907 27.8872C21.0092 27.3668 21.9337 26.6348 22.7383 25.704C24.172 24.0454 25.0793 21.8917 25.1092 20.0808C25.1392 18.3418 26.4916 16.4802 28.4603 16.4802C29.2178 16.4802 29.5773 16.6875 29.9496 17.081C30.3648 17.5168 30.5873 18.1768 30.5873 18.985C30.5873 20.1062 29.8298 20.7874 29.0252 21.5067C28.2163 22.2345 27.3775 22.9834 27.3775 24.2315C27.3775 26.3048 29.5858 27.9126 31.486 27.9126C31.4518 27.8703 31.4218 27.8322 31.3962 27.7984C31.3619 27.7518 31.3662 27.6841 31.4047 27.6418C31.4304 27.6164 31.4604 27.6037 31.4946 27.6037C31.5288 27.6037 31.5417 27.6122 31.5631 27.6249L31.6358 27.6757C31.9739 27.9041 32.3206 28.1538 32.6929 28.3315C33.0653 28.505 33.4804 28.6277 33.8827 28.7334C34.576 28.9111 35.295 29.0042 36.014 29.0042C36.1552 29.0042 36.3007 29 36.4463 28.9873C36.9213 28.9492 37.3921 28.8308 37.7815 28.5473C37.5248 28.5346 37.315 28.5134 37.1653 28.4838C37.1096 28.4753 37.0668 28.4246 37.0668 28.3696C37.0668 28.3146 37.1053 28.2638 37.161 28.2511C37.2936 28.2215 37.6788 28.158 38.3465 28.158C39.0141 28.158 39.4934 28.1876 40.2681 28.3357C40.2039 28.0099 40.0027 27.8026 39.6261 27.6841C39.2709 27.5699 38.8258 27.553 38.3935 27.553C37.9613 27.553 37.8928 27.5614 37.6232 27.5657C37.3279 27.5741 37.024 27.5826 36.7116 27.5826C36.1595 27.5826 35.432 27.5614 34.713 27.4091C34.6488 27.3964 34.606 27.3329 34.6188 27.2652C34.6317 27.2102 34.683 27.1679 34.7386 27.1679C34.7943 27.1679 34.7558 27.1679 34.7643 27.1679C35.2651 27.2695 35.7786 27.3202 36.2922 27.3202C36.8058 27.3202 37.5462 27.2399 38.0683 27.1679C38.4834 27.1087 38.8429 27.0622 39.1725 27.0622C39.7417 27.0622 40.1226 27.2145 40.4435 27.5699C40.4863 27.206 40.4992 26.7956 40.2638 26.4994C40.1525 26.3598 39.9984 26.2582 39.793 26.1863C39.7459 26.1694 39.716 26.1271 39.7117 26.0763C39.7117 26.0255 39.7374 25.9832 39.7845 25.9621C40.1268 25.8097 40.298 25.5601 40.4435 25.3401C40.6404 25.0481 40.8116 24.7943 41.3123 24.7943C41.8131 24.7943 41.6247 24.8154 41.8173 24.862C41.5819 24.4008 41.3123 23.9227 40.7174 24.0242L40.6875 24.0285Z"/>
<path id="Vector_4" d="M44 12.2364C43.9957 12.1771 43.9486 12.1306 43.8887 12.1263C43.7946 12.1179 43.7047 12.1137 43.6234 12.1137C43.251 12.0967 43.0028 12.0883 42.6861 11.7455C42.6091 11.6609 42.5278 11.5509 42.4422 11.4324C42.4122 11.3901 42.378 11.3436 42.348 11.3013C42.348 11.3013 41.736 10.0404 40.803 9.96849C39.8743 9.89656 39.4592 9.90925 38.9585 9.90925C38.3807 9.84578 37.8372 9.68077 37.4434 9.4396C34.6573 7.73869 32.5817 6.54129 30.8355 5.83469C30.4161 5.66968 29.7442 5.59352 29.145 5.52582C28.8069 5.48774 28.4902 5.4539 28.2934 5.40735C28.0023 5.33119 27.7584 5.25926 27.5444 5.1958C26.9581 5.01809 26.5344 4.89116 25.717 4.89116C24.8995 4.89116 25.5329 4.89116 25.4345 4.89539C23.453 4.94616 22.1348 5.11964 21.1761 5.24234C20.5042 5.33119 19.9735 5.39889 19.4643 5.40312C18.2146 5.06463 16.3315 4.70499 14.7865 4.70499C13.2415 4.70499 13.3827 4.79384 12.912 4.97155C12.8649 4.98847 12.8349 5.03502 12.8349 5.08579C12.8349 5.13656 12.8649 5.17887 12.9163 5.1958C13.0489 5.24234 13.1773 5.30158 13.3057 5.35235C13.6823 5.51313 14.0718 5.67814 14.6239 5.73315C14.8122 5.75007 14.9705 5.87701 15.0347 6.05048V6.05894C15.039 6.05894 15.039 6.06741 15.0433 6.07164C15.1032 6.25781 15.0433 6.45667 14.8892 6.5836L14.8764 6.59206C14.5468 6.85862 14.2387 7.05748 13.9006 7.21827C13.8621 7.23519 13.8364 7.27327 13.8321 7.31135C13.8278 7.35366 13.845 7.39174 13.8749 7.41713C13.952 7.47636 14.029 7.54406 14.0975 7.61599C14.106 7.62445 14.1146 7.62868 14.1231 7.63291C14.6838 7.96717 14.7651 8.63146 14.7993 8.87686C14.8079 8.93186 14.8464 8.97418 14.9021 8.98264C15.1417 9.01649 15.3257 9.0588 15.5226 9.10534C16.0405 9.22804 16.6268 9.36344 18.4714 9.36344C20.3159 9.36344 20.6797 9.19842 21.7753 9.03764C22.8581 8.88109 23.8852 8.72877 24.8439 8.72877C26.8425 8.83032 28.67 9.48614 30.4332 10.1208C32.3505 10.8105 34.3321 11.5213 36.5276 11.5213C38.7231 11.5213 38.2181 11.7963 38.9499 12.0925C39.7074 12.3929 40.4906 12.706 41.6333 12.706C42.776 12.706 43.067 12.596 43.9187 12.3633C43.9743 12.3464 44.0128 12.2956 44.0086 12.2364H44Z"/>
<path id="Vector_5" d="M7.9432 3.89262C7.9432 3.93916 7.96887 3.97724 8.01167 3.9984C8.11439 4.04494 8.20854 4.09571 8.29414 4.15071C8.31553 4.16341 8.33693 4.16764 8.35833 4.16764C8.37973 4.16764 8.40969 4.15918 8.42681 4.14648C8.95321 3.77415 9.68933 3.69376 10.3313 3.62606C10.969 3.55413 11.5724 3.49066 12.0389 3.21564C12.2401 3.09717 12.4027 2.94908 12.5311 2.76714C12.5439 2.75022 12.561 2.72906 12.5824 2.70791C12.6723 2.61482 12.8007 2.55982 12.9334 2.55982C13.066 2.55982 12.9976 2.55982 13.0318 2.56828C13.0404 2.56828 13.0489 2.56828 13.0575 2.56828C13.066 2.56828 13.0703 2.56828 13.0789 2.56828C13.233 2.53866 13.3956 2.52597 13.5582 2.52597C14.4441 2.52597 15.2958 2.9787 16.1218 3.41873C16.8964 3.82915 17.6282 4.21841 18.3515 4.21841C19.0748 4.21841 18.4714 4.16341 18.4714 4.09994C18.4714 3.91377 18.4286 3.77838 18.3772 3.6726C18.6211 3.88416 18.8865 4.06186 19.2032 4.06186C19.5199 4.06186 19.3059 4.05763 19.3573 4.04917C19.3829 4.04494 19.4129 4.04071 19.4471 4.04071C19.6397 4.04071 19.8879 4.1211 20.0848 4.18879L20.1576 4.21418C20.1704 4.21418 20.1833 4.21841 20.1961 4.21841C20.2389 4.21841 20.2774 4.19726 20.2988 4.16341C20.3288 4.11687 20.3202 4.0534 20.2817 4.01532C20.0549 3.79107 19.9693 3.64721 20.0891 3.43989C20.1576 3.29603 20.2988 3.25372 20.4015 3.24526C20.4486 3.24526 20.4914 3.24526 20.5385 3.24526C21.1719 3.24526 21.8267 3.37219 22.336 3.60067C22.5842 4.01109 23.0806 4.30303 23.5343 4.30303C23.9879 4.30303 24.8482 3.74876 24.8952 2.87715C24.8952 2.83061 24.8738 2.7883 24.8353 2.76714C24.8182 2.75445 24.7968 2.75022 24.7754 2.75022C24.754 2.75022 24.7326 2.75445 24.7112 2.76714C24.6813 2.78407 24.6513 2.80522 24.6213 2.82215C24.4159 2.95331 24.2404 3.06332 23.9837 3.06332C23.7269 3.06332 23.8895 3.06332 23.8424 3.05063C24.4459 2.74176 24.6727 2.32711 24.5957 1.70514C24.5914 1.65859 24.5614 1.62474 24.5186 1.60782C24.5058 1.60359 24.4887 1.59936 24.4758 1.59936C24.4459 1.59936 24.4159 1.61205 24.3945 1.62898C24.172 1.83207 24.0136 1.91669 23.8767 1.959C24.0393 1.7813 24.172 1.54435 24.172 1.16779C24.172 0.791217 24.0436 0.503502 23.1876 0.249635C23.1748 0.249635 23.1662 0.245404 23.1534 0.245404C23.1149 0.245404 23.0764 0.262329 23.055 0.296177C23.0421 0.313102 23.0336 0.334257 23.0336 0.355413C22.9009 0.258097 22.7254 0.203093 22.5285 0.203093C22.3317 0.203093 22.1477 0.249635 21.9508 0.34272C21.9037 0.363875 21.878 0.410417 21.8823 0.456959C21.8823 0.507733 21.9165 0.550044 21.9636 0.562737C22.2803 0.668515 22.4387 0.867377 22.4387 1.16779C22.4387 1.46819 22.0407 1.59936 21.7882 1.59936C21.1933 1.59936 20.8552 1.34972 20.4272 1.03239C19.9864 0.706595 19.4343 0.296177 18.4286 0.0761599C18.129 0.0211555 17.8465 -0.00846221 17.5641 -0.00846221C16.8023 -0.00846221 16.0533 0.186169 14.8079 0.533119C14.5854 0.562737 14.3072 0.600817 14.0504 0.647359C13.7551 0.566968 13.4555 0.507733 13.173 0.507733C12.6167 0.507733 12.2229 0.736213 12.0047 1.19317C11.9704 1.25664 11.9319 1.32857 11.8934 1.40473C11.7393 1.7136 11.551 2.09017 11.183 2.25095C11.2514 2.06901 11.3413 1.87015 11.4483 1.67129L11.7864 1.1424C11.8121 1.10009 11.8121 1.04508 11.7778 1.007C11.7564 0.977386 11.7179 0.960461 11.6837 0.960461C11.6495 0.960461 11.658 0.960461 11.6452 0.964692C11.5938 0.981617 10.3741 1.36665 9.49674 1.99708C9.4625 2.02247 9.44111 2.06478 9.44538 2.10709C9.45394 2.20018 9.44538 2.29326 9.42399 2.39057C9.28703 2.93639 8.5766 3.47374 8.01167 3.77415C7.97315 3.7953 7.94748 3.83761 7.94748 3.88416L7.9432 3.89262Z"/>
<path id="Vector_6" d="M8.54664 14.72C8.47816 14.6946 8.40541 14.6692 8.33265 14.6523ZM8.31553 14.6481C7.87472 14.5296 7.39967 14.5381 6.95886 14.6692C6.89038 14.6904 6.80907 14.7116 6.75771 14.7623C6.70635 14.8089 6.69779 14.8766 6.70207 14.94C6.70635 15.0289 6.70635 15.1177 6.71063 15.2024C6.71919 15.452 6.72775 15.7016 6.73631 15.9513C6.74487 16.2348 6.75771 16.5182 6.76627 16.8017C6.77483 17.0471 6.78339 17.2883 6.79195 17.5337C6.79623 17.6268 6.77055 17.7749 6.79623 17.8595C6.82618 17.9526 6.89894 17.9103 6.9503 17.8426C7.06157 17.7029 7.15144 17.5506 7.21992 17.3856C7.24132 17.3264 7.31408 17.1952 7.29696 17.136C7.28412 17.081 7.19424 17.0344 7.16428 16.9794C7.11293 16.8736 7.10865 16.7509 7.11293 16.6367C7.12577 16.349 7.16428 15.9851 7.36971 15.7609C7.57942 15.5324 7.96888 15.5112 8.22566 15.6932C8.64935 15.9936 8.56804 16.5859 8.25134 16.9329C8.1743 17.0133 8.08443 17.0852 7.98599 17.136C7.88756 17.1868 7.84048 17.1868 7.84048 17.3052C7.84048 17.576 7.86616 17.8468 7.88328 18.1176C7.88328 18.1557 7.88756 18.198 7.91324 18.2234C7.99883 18.3165 8.14862 17.9653 8.18714 17.9018C8.26846 17.7664 8.34549 17.631 8.42681 17.4956C8.51668 17.3475 8.60228 17.1952 8.69215 17.0471C8.78203 16.8948 8.8719 16.7425 8.96177 16.5859C9.04737 16.4421 9.13296 16.294 9.21856 16.1501C9.29131 16.0232 9.36407 15.9005 9.43683 15.7736C9.4839 15.6932 9.55238 15.6085 9.55666 15.507C9.56094 15.4647 9.5481 15.4181 9.51386 15.3885C9.47534 15.3589 9.44539 15.3124 9.41115 15.2785C9.26992 15.1304 9.10301 15.0035 8.92754 14.8977C8.81626 14.8343 8.70499 14.7793 8.58516 14.7327"/>
<path id="Vector_7" d="M6.49664 18.0584C6.47525 17.9568 6.42817 17.8637 6.39393 17.7622C6.35113 17.6268 6.32545 17.4872 6.30406 17.3518C6.28694 17.2502 6.30406 17.1444 6.34685 17.0471C6.38109 16.9667 6.45813 16.9075 6.46241 16.8229C6.47525 16.6409 6.32545 16.4929 6.29122 16.3194C6.26554 16.1797 6.29978 16.0317 6.35969 15.9047C6.41961 15.782 6.40677 15.6805 6.39393 15.5451C6.38965 15.4647 6.38109 15.3843 6.35541 15.3124C6.32973 15.2404 6.2741 15.1685 6.19706 15.1431C6.07723 15.1008 6.01303 15.1897 5.936 15.2658C5.79477 15.4055 5.67493 15.562 5.57222 15.7313C5.47807 15.892 5.40531 16.0613 5.35823 16.239C5.31116 16.4209 5.28976 16.6113 5.29832 16.806C5.3026 17.009 5.33684 17.1952 5.39247 17.3729C5.46095 17.5929 5.57222 17.796 5.71773 17.978C5.83329 18.1261 6.01731 18.3757 6.21846 18.4095C6.28694 18.4222 6.35969 18.4053 6.41533 18.363C6.47525 18.3122 6.50092 18.2361 6.50092 18.1599C6.50948 18.1261 6.5052 18.0922 6.49664 18.0584Z"/>
<path id="Vector_8" d="M9.7792 16.0782C9.71929 16.0867 9.65937 16.1163 9.62085 16.1459C9.55238 16.1924 9.50102 16.2644 9.47962 16.3448C9.45822 16.4167 9.48818 16.4505 9.49674 16.514C9.51814 16.6579 9.42399 16.844 9.33839 16.954C9.23568 17.0852 9.08589 17.1783 8.92326 17.2164C8.75635 17.2587 8.69643 17.2164 8.73495 17.411C8.78203 17.6437 8.73495 17.8891 8.61512 18.0922C8.52096 18.2488 8.38829 18.3842 8.2385 18.4899C8.14862 18.5534 8.03307 18.5957 8.06731 18.7311C8.12722 18.9596 8.36261 18.803 8.49528 18.7565C8.5124 18.748 8.5338 18.7438 8.55092 18.7353C8.95321 18.5872 9.32983 18.3292 9.59518 17.9949C9.86052 17.6606 10.0103 17.2671 10.0103 16.8398C10.0103 16.624 9.97179 16.4209 9.94183 16.2094C9.929 16.1332 9.94183 16.0951 9.86052 16.0782C9.83912 16.0697 9.80916 16.0697 9.7792 16.0782Z"/>
<path id="Vector_9" d="M7.55374 18.3334C7.54946 18.2107 7.5409 18.088 7.53234 17.9653C7.52806 17.9145 7.5195 17.8595 7.50666 17.8087C7.50238 17.7833 7.4981 17.7072 7.46387 17.6987C7.41251 17.686 7.33547 17.8426 7.30979 17.8807C7.25844 17.9568 7.20708 18.0287 7.15572 18.1049C7.08297 18.2107 7.01021 18.3165 6.93746 18.418C6.8861 18.4899 6.76199 18.6126 6.80907 18.7015C6.83474 18.7523 6.89038 18.7565 6.93746 18.7734C7.00593 18.7946 7.07869 18.8115 7.15144 18.8284C7.22848 18.8453 7.30979 18.8623 7.39111 18.8623C7.42963 18.8623 7.47242 18.875 7.51094 18.8665C7.53662 18.8623 7.5623 18.8496 7.57942 18.8284C7.59654 18.7988 7.59226 18.7607 7.5837 18.7226C7.55802 18.5915 7.55802 18.4645 7.55374 18.3334Z"/>
</g>
<defs>
<clipPath id="clip0_0_4">
<rect width="44" height="29" fill="white"/>
</clipPath>
</defs>
</svg>
